<svg width="224" height="224" viewBox="0 0 224 224" fill="none" xmlns="http://www.w3.org/2000/svg">
<path d="M186.23 184.23C186.146 184.455 186.049 184.676 185.94 184.89C185.94 184.89 185.94 184.8 185.94 184.77C185.59 185.52 184.71 184.9 184.13 185.06C183.65 184.91 183.13 185.24 182.69 184.91C181.9 184.45 180.9 185.24 180.39 184.37C180.14 184.66 179.71 184.31 179.39 184.48C179.07 184.65 179.01 184.31 178.74 184.38C178.05 184.38 176.84 183.9 176.55 183.98C176.27 184.49 175.86 184.07 175.66 183.79C175.42 183.67 175.19 184.06 174.97 183.94C174.75 183.82 174.74 183.68 174.61 183.66C174.09 184.05 173.94 183.2 173.61 183.31C173.524 183.356 173.427 183.381 173.33 183.381C173.232 183.381 173.136 183.356 173.05 183.31C172.79 183.07 173.05 182.4 173.05 182.07C173.26 181.77 173.48 181.86 173.68 181.62C173.88 181.38 174.17 182.25 174.58 182.14C174.99 182.03 175.16 182.14 175.45 182.33C175.815 182.241 176.2 182.28 176.54 182.44C177.777 182.488 179.01 182.618 180.23 182.83C180.71 183.12 181.23 182.71 181.79 182.78C182.081 182.995 182.428 183.12 182.79 183.14C183.84 183.69 185.87 182.69 186.23 184.23ZM197.49 185.67C197.28 185.48 197.06 185.73 196.83 185.67C196.49 185.75 196.33 185.01 196.08 185.19C195.83 185.37 195.64 185.34 195.45 185.65C195.26 185.96 195.2 186.65 195.45 186.86C194.6 187.264 193.801 187.767 193.07 188.36C193 188.62 192.62 188.7 192.48 188.92C192.34 189.14 192.25 189.11 192.06 189.06C191.58 189.06 191.45 189.56 191.19 189.86C190.48 190.202 189.832 190.658 189.27 191.21C188.97 191.73 187.9 191.89 188.17 192.66C188.17 192.66 188.09 192.61 188.07 192.6C188.53 194.6 190.07 192.7 190.96 192.06C191.435 191.686 191.978 191.407 192.56 191.24C192.99 190.93 193.11 190.24 193.66 190.12C194.686 189.429 195.665 188.671 196.59 187.85C196.7 187.92 197.4 187.36 197.45 187.16C197.71 187.09 199.02 186.81 199.31 186.73L197.49 185.67ZM180.63 198.51C180.32 198.06 179.8 197.31 179.41 198.1C179.405 198.128 179.394 198.154 179.377 198.177C179.36 198.2 179.338 198.218 179.313 198.231C179.287 198.244 179.259 198.25 179.231 198.25C179.203 198.25 179.175 198.243 179.15 198.23C178.69 198.01 178.57 198.46 178.3 198.61C177.95 198.55 177.77 198.7 177.72 199.06C177.51 199.41 176.6 198.9 176.79 199.69C176.29 200.15 175.37 200.48 174.79 201.03C174.71 201.2 174.42 201.03 174.38 201.3C174.34 201.57 173.94 201.64 173.79 201.86C173.64 202.08 173.79 202.12 173.64 202.09C172.76 201.73 172.57 203.09 171.73 203.25C170.89 203.41 170.73 204.36 170.04 204.6C169.69 204.7 169.32 205.27 169.48 205.6C169.48 205.6 169.42 205.55 169.38 205.53C169.85 207.53 171.44 205.64 172.28 204.99C172.752 204.616 173.292 204.338 173.87 204.17C174.3 203.86 174.42 203.17 174.97 203.05C175.996 202.359 176.975 201.601 177.9 200.78C178.04 200.83 178.7 200.3 178.76 200.09C179.31 200.09 179.41 199.59 179.85 199.49C180.02 199.31 180.52 199.7 180.53 199.39C180.54 199.08 180.84 198.86 180.63 198.51ZM161.99 211.51C161.11 210.35 161.43 210.68 160.51 211.23C160.05 211.01 159.93 211.46 159.66 211.61C159.13 211.46 159.22 212 158.93 212.21C158.59 212.15 158 212.13 158.15 212.69C158.15 212.83 158.15 212.84 158.04 212.85C157.23 213.09 156.67 213.85 155.95 214.12C155.85 214.04 155.95 214.29 155.95 214.31C155.95 214.33 155.6 214.51 155.47 214.36C155.11 213.48 153.96 214.36 153.3 213.8C152.89 213.45 152.3 213.8 151.86 213.6C151.27 213.75 150.41 213.1 150.04 213.83C150.04 213.83 150.04 213.73 150.04 213.72C149.04 215.27 150.78 215.2 151.77 215.36C152.603 215.361 153.422 215.574 154.15 215.98C154.884 215.851 155.638 215.899 156.35 216.12C157.396 215.405 158.398 214.627 159.35 213.79C159.45 213.87 160.17 213.29 160.21 213.11C160.76 213.11 160.86 212.6 161.3 212.5C161.47 212.32 161.97 212.71 161.98 212.4C161.99 212.09 162.2 211.84 162 211.49L161.99 211.51ZM140.54 211.45C140.27 211.19 139.89 211.6 139.71 211.3C139.54 210.82 139.14 211.04 138.84 210.95C138.58 210.47 138.26 210.95 137.91 210.85C137.826 210.702 137.705 210.578 137.56 210.49C137.26 210.12 137.08 210.79 136.82 210.66C135.797 210.279 134.72 210.063 133.63 210.02C133.43 209.91 133.26 210.19 133.12 210.02C132.73 209.1 131.43 210.07 130.8 209.35C130.14 209.18 129.44 209.46 128.8 209.19C128.48 209.01 127.8 209.14 127.68 209.49C127.68 209.49 127.68 209.41 127.68 209.38C126.55 211.12 129.04 210.92 130.09 211.07C130.687 211.152 131.264 211.345 131.79 211.64C132.31 211.73 132.88 211.35 133.36 211.64C134.571 211.889 135.797 212.06 137.03 212.15C137.03 212.36 138.3 212.22 138.49 212.53C138.93 212.61 139.43 212.44 139.66 213.03C139.75 213.32 139.94 212.89 140.04 212.9C140.6 213 140.8 211.76 140.54 211.43V211.45ZM118.24 207.15C117.97 206.89 117.59 207.3 117.4 207C117.24 206.52 116.84 206.74 116.54 206.65C116.28 206.17 115.96 206.65 115.6 206.55C115.522 206.401 115.405 206.276 115.26 206.19C114.96 205.82 114.77 206.49 114.52 206.36C113.497 205.979 112.42 205.763 111.33 205.72C111.13 205.61 110.96 205.89 110.81 205.72C110.43 204.8 109.13 205.72 108.49 205.05C107.84 204.88 107.13 205.16 106.49 204.89C106.299 204.801 106.083 204.782 105.88 204.837C105.677 204.892 105.499 205.017 105.38 205.19C105.38 205.19 105.38 205.11 105.38 205.08C104.25 206.82 106.74 206.62 107.79 206.77C108.384 206.85 108.958 207.044 109.48 207.34C110.01 207.43 110.57 207.05 111.05 207.34C112.264 207.589 113.493 207.759 114.73 207.85C114.73 208.06 115.99 207.92 116.19 208.23C116.63 208.31 117.12 208.14 117.36 208.73C117.45 209.02 117.64 208.59 117.74 208.6C118.29 208.69 118.49 207.46 118.24 207.13V207.15ZM95.9297 202.85C95.6697 202.59 95.2897 203 95.0997 202.7C94.9397 202.22 94.5397 202.44 94.2397 202.35C93.9797 201.87 93.6597 202.35 93.2997 202.25C93.1997 202.12 93.1198 201.96 92.9598 201.89C92.6598 201.52 92.4698 202.19 92.2098 202.06C91.1908 201.678 90.1172 201.462 89.0298 201.42C88.8298 201.31 88.6498 201.59 88.5098 201.42C88.1198 200.5 86.8298 201.47 86.1898 200.75C85.5398 200.58 84.8298 200.86 84.1898 200.59C83.9991 200.501 83.7831 200.482 83.5798 200.537C83.3766 200.592 83.1994 200.717 83.0798 200.89C83.0798 200.89 83.0798 200.81 83.0798 200.78C81.9498 202.52 84.4397 202.32 85.4897 202.47C86.0879 202.549 86.6651 202.742 87.1898 203.04C87.7098 203.13 88.2798 202.75 88.7598 203.04C89.9709 203.289 91.1967 203.459 92.4297 203.55C92.4297 203.76 93.6998 203.62 93.8998 203.93C94.3398 204.01 94.8298 203.84 95.0598 204.43C95.1598 204.72 95.3498 204.29 95.4498 204.3C95.9998 204.39 96.1897 203.16 95.9297 202.83V202.85ZM73.6298 198.55C73.3698 198.29 72.9897 198.7 72.7997 198.4C72.6397 197.92 72.2398 198.14 71.9398 198.05C71.6698 197.57 71.3598 198.05 70.9998 197.95C70.8998 197.82 70.8198 197.66 70.6498 197.59C70.3598 197.22 70.1697 197.89 69.9097 197.76C68.8908 197.378 67.8172 197.162 66.7297 197.12C66.5197 197.01 66.3498 197.29 66.2098 197.12C65.8198 196.2 64.5298 197.17 63.8898 196.45C63.2398 196.28 62.5298 196.56 61.8898 196.29C61.6992 196.201 61.483 196.182 61.2798 196.237C61.0766 196.292 60.8994 196.417 60.7798 196.59C60.7798 196.59 60.7798 196.51 60.7798 196.48C59.6498 198.22 62.1398 198.02 63.1898 198.17C63.7879 198.249 64.3651 198.442 64.8898 198.74C65.4098 198.83 65.9798 198.45 66.4598 198.74C67.6709 198.989 68.8967 199.159 70.1298 199.25C70.1298 199.46 71.3997 199.32 71.5997 199.63C72.0397 199.71 72.5298 199.54 72.7598 200.13C72.8498 200.42 73.0498 199.99 73.1398 200C73.6898 200.09 73.8898 198.86 73.6298 198.53V198.55ZM51.3298 194.25C51.0598 193.99 50.6898 194.4 50.4998 194.1C50.3398 193.62 49.9298 193.84 49.6398 193.75C49.3698 193.27 49.0598 193.75 48.6998 193.65C48.5998 193.52 48.5197 193.36 48.3497 193.29C48.0497 192.92 47.8697 193.59 47.6097 193.46C46.5874 193.078 45.5104 192.862 44.4197 192.82C44.2197 192.71 44.0497 192.99 43.9097 192.82C43.5197 191.9 42.2298 192.82 41.5898 192.15C40.9398 191.98 40.2298 192.26 39.5898 191.99C39.2698 191.81 38.5897 191.99 38.4697 192.29C38.4697 192.29 38.4697 192.21 38.4697 192.18C37.3397 193.92 39.8298 193.72 40.8798 193.87C41.4779 193.949 42.0551 194.142 42.5798 194.44C43.0998 194.53 43.6698 194.15 44.1498 194.44C45.3608 194.689 46.5867 194.86 47.8198 194.95C47.8198 195.16 49.0898 195.02 49.2798 195.33C49.7198 195.41 50.2198 195.24 50.4498 195.83C50.5398 196.12 50.7298 195.69 50.8298 195.7C51.3898 195.79 51.5898 194.56 51.3298 194.23V194.25ZM36.1398 185.3C35.8898 183.23 34.1398 184.98 33.2098 185.54C32.6983 185.866 32.1273 186.087 31.5298 186.19C31.0798 186.46 30.8898 187.12 30.3298 187.19C29.2365 187.786 28.1841 188.454 27.1797 189.19C27.1797 189.06 27.0497 189.19 26.9897 189.25C26.9301 189.24 26.8694 189.24 26.8098 189.25V189.31C26.2398 189.31 25.8098 190.88 25.5098 191.26C25.8898 191.14 26.6298 190.62 26.9598 191.09C27.3998 191.17 27.8998 191 28.1298 191.59C28.2198 191.88 28.4098 191.45 28.5098 191.46C28.6098 191.47 28.8197 191.28 28.9697 191.19C28.9697 190.92 29.2997 190.11 28.9697 189.95C29.4204 189.753 29.8522 189.515 30.2598 189.24C30.3598 189.08 30.6298 189.24 30.6998 189.02C30.7698 188.8 31.3798 188.71 31.3998 188.33C31.9998 188.54 32.3997 188.21 32.7197 187.72C33.4426 187.444 34.1176 187.056 34.7197 186.57C35.0797 186.09 36.1597 186.04 35.9697 185.24C36.0697 185.2 36.1298 185.27 36.1398 185.28V185.3ZM44.1398 180.15C44.3498 180.44 44.7198 181.46 45.0198 180.84C45.0198 180.74 45.0798 180.71 45.1898 180.84C45.5598 181.16 45.5297 180.84 45.7297 180.74C45.9697 180.88 46.0798 180.81 46.0798 180.5C46.0798 180.19 46.8598 180.95 46.6498 180.2C46.5798 179.98 46.8398 180.2 46.9398 180.05C47.2685 179.936 47.5785 179.775 47.8597 179.57C47.8597 179.45 48.1097 179.68 48.1097 179.45C48.1097 179.22 48.5398 179.26 48.4598 178.96C48.9398 179.22 49.0097 179.13 49.2397 178.64C49.4497 178.64 49.5998 178.37 49.8398 178.48C50.1098 178.37 50.1397 178.09 50.4097 177.99C50.4797 177.67 50.7597 177.81 50.9197 177.65C51.0797 177.49 51.1598 177.25 51.0098 177.01C51.0098 177.01 51.0098 177.06 51.0798 177.09C50.4898 175.09 49.8398 176.52 48.7498 176.95C48.6627 177.013 48.5628 177.055 48.4572 177.074C48.3517 177.093 48.2432 177.088 48.1398 177.06C47.8798 177.22 47.8698 177.78 47.5098 177.74C46.9618 178.006 46.4508 178.342 45.9897 178.74C45.8697 178.87 45.7498 178.55 45.7498 178.9C45.7498 178.77 45.6697 178.9 45.6097 178.9C45.5497 178.9 45.2697 179.03 45.2297 179.22C45.1197 179.22 44.9398 179.13 44.8398 179.22C44.7398 179.31 44.7297 179.52 44.5497 179.44C44.4597 179.55 44.0497 179.08 44.0997 179.35C44.1497 179.62 43.9998 179.81 44.1298 180.13L44.1398 180.15ZM167.68 150.4C168.01 163.96 167.91 179.23 167.48 193.08C163.37 195.59 159.26 199.18 155.07 201.23C155.07 201.6 155.07 201.97 155.07 202.34C121.93 196.34 88.3798 190.61 55.3098 184.45C54.9998 132.75 54.6998 75.9 55.7798 24C55.9298 23.66 56.0697 23.28 56.2197 23C56.0697 23 56.0697 23 56.2197 22.95C86.3297 18.12 122.78 16.46 154.87 13.02V14.4C159 15.3 163.34 17.74 167.5 19.48C167.61 63.08 167.77 106.86 167.67 150.38L167.68 150.4ZM126.15 182.84C135.15 183.93 144.31 185.05 153.28 186.56C153.28 178.79 153.22 170.85 153.28 163.2C153.092 163.287 152.894 163.347 152.69 163.38C152.598 163.312 152.492 163.264 152.38 163.24C140.55 163.17 128.29 160.52 116.29 159.76C116.29 159.82 116.17 159.93 116.18 160.01C117.26 166.76 116.67 174.33 116.77 181.34C117.06 181.25 117.47 181.44 117.77 181.22C118.41 181.07 118.77 181.73 119.48 181.77C121.7 182.24 124 182.44 126.14 182.82L126.15 182.84ZM114.95 162.36C114.962 161.446 115.08 160.537 115.3 159.65C111.16 158.65 106.3 158.7 102.3 158.02C102.68 160.116 102.68 162.264 102.3 164.36C102.3 168.36 102.4 172.92 102.3 176.81C102.56 181.09 102.23 185.81 102.53 190.12C106.95 187.74 110.69 184.03 115.1 181.54C115.19 175.13 115 168.73 114.94 162.34L114.95 162.36ZM81.2698 176.2C87.6898 176.86 94.2698 177.78 100.78 178.74C100.04 172.03 100.98 164.69 100.88 157.82C92.0698 156.75 83.5497 155.82 74.7397 154.75C74.7281 155.007 74.802 155.26 74.9498 155.47C75.1898 156.13 74.5798 156.62 74.6498 157.38C74.5098 159.75 74.7398 162.38 74.5798 164.62C74.7398 168.01 74.7598 171.62 74.7798 175.08C74.8628 175.097 74.9486 175.094 75.0303 175.071C75.1119 175.049 75.1871 175.007 75.2498 174.95C75.6998 174.77 75.9597 175.42 76.4697 175.43C77.9997 175.8 79.6898 175.91 81.2698 176.2ZM73.1498 154.7C67.7098 153.82 62.2298 153.14 56.7798 152.34C56.6798 156.65 56.9498 162.52 56.7798 166.09C56.9298 171.72 56.9198 177.09 56.7798 183.04C61.9698 179.98 67.7797 177.72 73.1097 175.29C72.8097 171.46 73.2998 167.75 72.8398 164C73.1051 162.919 73.1051 161.791 72.8398 160.71C73.066 158.715 73.1695 156.708 73.1498 154.7V154.7ZM72.7997 36C72.9097 34.19 73.2997 30.93 72.7997 29.5C67.4397 27.36 61.9098 25.5 56.5198 23.41C56.7298 31.7 57.2898 45.74 57.0298 55.53C62.0298 54.67 67.7397 55.28 72.9697 55.03C72.9297 48.5 73.1397 42.6 72.7997 36ZM74.7397 55C77.0097 54.81 79.6797 54.76 81.7397 54.77C88.1297 54.36 94.7398 54.36 101.14 53.94C100.54 51.73 100.89 49.24 101.14 46.83C101.14 42.49 101.14 37.63 101.3 33.45C101.17 31.39 101.3 29.25 101.3 27.14C98.4397 27.94 95.4398 27.81 92.5298 28.21C91.7179 28.5355 90.8117 28.5355 89.9998 28.21C89.0306 28.5244 88.0186 28.6863 86.9998 28.69C85.3598 28.95 83.5498 28.84 81.9998 29.04C81.5898 29.62 80.6398 29.35 80.0698 29.14C79.3098 29.3 78.6597 29.66 77.8597 29.35C77.5965 29.4782 77.3076 29.5448 77.0148 29.5448C76.722 29.5448 76.433 29.4782 76.1697 29.35C75.6197 29.13 75.0898 29.65 74.5098 29.5C74.6659 32.2274 74.6825 34.9609 74.5598 37.69C74.7998 43.21 74.5697 49.32 74.7397 55ZM116 28.23C115.999 27.5377 115.952 26.8461 115.86 26.16L115.81 26.05C111.93 24.05 107.72 22.05 103.81 20.23C103.51 20.1 102.98 19.69 103.06 20.23C103.06 31.45 102.95 42.57 102.45 53.81C107.15 53.76 111.89 53.7 116.52 53.25V53.14C116.577 53.0597 116.614 52.9673 116.63 52.87C115.5 45 116.13 36.36 116 28.23ZM117.85 50.44C117.835 51.3678 117.732 52.2921 117.54 53.2C129.29 53.37 141.48 51.89 153.13 52.49C153.13 42.68 153.13 32.89 153.13 23.09C146.84 24.3 140.33 24.35 134.13 25.02C131.95 25.32 129.6 25.26 127.48 25.5C126.92 26.09 125.69 25.85 124.93 25.65C123.992 25.9708 122.99 26.06 122.01 25.91C120.65 26.4 119.32 25.69 117.94 26.13C117.46 34.18 117.9 42.38 117.89 50.44H117.85ZM120.22 158.07C121.98 158.4 123.81 158.72 125.61 158.9C125.68 156.85 125.47 154.82 125.61 152.78C125.501 152.758 125.388 152.76 125.28 152.784C125.172 152.808 125.069 152.854 124.98 152.92C124.43 153.1 124.08 152.46 123.46 152.45C121.56 152.12 119.46 152.12 117.61 151.77C109.61 151.03 101.17 150.77 93.2498 149.33C89.9798 150.95 86.2497 152.06 83.1597 154.02C95.4797 155.48 107.9 157.06 120.26 158.07H120.22ZM75.2197 153.17C76.4797 153.17 77.7197 153.47 78.9797 153.6C78.9797 151.69 78.8297 149.8 78.9797 147.88C78.4297 148.38 78.0397 147.61 77.4297 147.54C75.9097 147.54 75.1298 147.21 73.6498 147.24C69.6498 148.58 65.3797 150.03 61.1697 151.08C65.6797 152.29 70.6498 152.56 75.2798 153.17H75.2197ZM56.7098 88.17C61.8298 87.39 67.7098 88.33 73.0198 88.28C73.0198 77.84 72.9497 67.07 72.9297 56.72C67.5997 56.64 62.2997 56.77 56.9297 56.83C56.7897 66.37 56.6798 78.26 56.7698 88.21L56.7098 88.17ZM100.19 55.71C98.6398 55.71 97.0998 55.71 95.5598 55.87C95.5522 55.9691 95.5662 56.0687 95.6007 56.1619C95.6352 56.2551 95.6895 56.3397 95.7598 56.41C95.9998 56.94 95.3998 57.35 95.4598 57.96C95.3298 59.88 95.5498 61.96 95.3998 63.83C95.3998 71.83 96.2598 80.37 95.3998 88.35C105.83 88.46 116.2 88.23 126.61 88.51C125.83 82.88 126.55 77.09 126.29 71.57C126.38 67.68 126.36 65.73 126.29 62.09C126.84 61.09 125.89 60.09 126.44 59.09C126.27 57.59 126.81 56.23 126.64 54.72C118 55.23 108.93 55.37 100.25 55.75L100.19 55.71ZM140.5 54.24C136.5 54.39 132.36 54.85 128.3 54.71C128.3 54.96 128.3 55.24 128.5 55.47C128.74 56.02 128.13 56.47 128.18 57.08C128.02 59.08 128.18 61.31 128.04 63.22C128.11 71.55 128.41 80.17 127.94 88.54C132.14 88.7 136.34 88.54 140.55 88.66C139.6 86.99 140.3 84.47 140.06 82.5C139.96 79.85 140.06 77.18 140.06 74.5C140.51 73.91 140.14 73.36 140.17 72.68C139.97 69.05 140.45 65.57 140.06 62.05C140.348 61.1216 140.372 60.1314 140.13 59.19C140.51 58.3 140.13 57.46 140.33 56.54C140.623 55.8247 140.703 55.0397 140.56 54.28L140.5 54.24ZM153.07 89.88C152.942 89.947 152.808 90.0006 152.67 90.04C152.574 89.977 152.464 89.9391 152.35 89.93C141.22 91.17 129.35 89.79 117.98 90.38C118.77 99.38 118.06 108.31 118.57 117.27C124.35 116.75 130.23 117.58 135.88 117.51C139.22 117.7 142.43 117.76 145.68 117.83C146.68 118.42 147.68 117.49 148.75 118.08C150.22 117.91 151.52 118.57 152.99 118.39C152.92 108.91 153 99.51 153.13 89.92L153.07 89.88ZM116.5 92.48C116.523 91.7766 116.59 91.0752 116.7 90.38C112.424 90.0456 108.132 89.9955 103.85 90.23C104.235 92.4165 104.235 94.6535 103.85 96.84C103.85 101.01 103.94 105.7 103.85 109.73C104.08 113.5 103.85 117.73 104 121.52C104 121.7 104 122.01 104.27 121.79C108.03 120.21 112.87 118.85 116.51 116.9C116.86 108.83 116.64 100.61 116.56 92.52L116.5 92.48ZM153.11 127C152.984 127.055 152.853 127.099 152.72 127.13C152.622 127.066 152.514 127.022 152.4 127C148.68 127.74 144 126.65 140.1 126.72C140.177 126.827 140.238 126.945 140.28 127.07C140.218 127.141 140.177 127.228 140.16 127.32C141.25 135.51 139.84 144.43 140.16 152.85C140.61 152.7 141.02 153.12 141.49 152.9C142.03 153.03 142.61 152.67 143.1 152.99C143.86 153.39 144.67 152.78 145.39 153.14C145.62 153.61 145.74 153.27 146.13 153.31C146.739 153.261 147.352 153.302 147.95 153.43C148.61 153.27 149.38 153.79 149.95 153.67C150.18 153.25 150.48 153.44 150.77 153.61C151.01 154.11 151.38 153.61 151.77 153.61C152.09 154 152.46 153.61 152.84 153.87C153.01 153.97 153.11 154.31 153.34 154.18C153.3 145.06 153.16 136.1 153.11 127ZM139.31 126.69C135.31 126.42 131.24 126.45 127.24 125.91C127.63 128.036 127.63 130.214 127.24 132.34C127.24 136.39 127.34 140.94 127.24 144.86C127.48 149.03 127.24 153.64 127.44 157.86C130.77 156.86 134.82 154.5 138.15 152.71V152.66C139.13 144.19 138 135 139.31 126.66V126.69ZM125.82 126.14C125.82 126.02 125.82 125.91 125.82 125.81C115.02 125.31 104.2 124.37 93.4598 123.81C93.4035 123.879 93.3656 123.962 93.3497 124.05C94.5197 131.73 93.3498 140.18 93.6898 148.05C99.5098 147.93 105.34 149.05 110.98 149.4C112.98 149.48 115.06 149.95 116.98 150.07C117.58 149.59 118.64 150.07 119.28 150.36C120.169 150.204 121.083 150.286 121.93 150.6C123.23 150.36 124.29 151.28 125.61 151.09C125.47 142.88 125.63 134.49 125.82 126.11V126.14ZM91.9998 129C91.9324 127.212 92.0835 125.422 92.4498 123.67C88.5337 123.254 84.5978 123.054 80.6597 123.07C80.9713 125.01 80.9443 126.989 80.5798 128.92C80.5798 132.77 80.6798 137.11 80.5798 140.83C80.8898 144.57 80.3897 149.33 80.8497 152.97C84.5505 151.413 88.1626 149.654 91.6697 147.7C91.6697 147.7 91.6697 147.7 91.6697 147.7C92.1797 141.6 92.1298 135.2 91.9998 129ZM78.7098 90C77.4343 89.7504 76.1255 89.72 74.8398 89.91C74.4598 98.05 75.7698 107.26 74.4398 115.18C79.4398 115.79 84.6497 115.44 89.6797 115.88C90.7497 115.15 92.4597 116.18 93.6797 116.04C96.5497 115.63 99.4298 116.6 102.33 116.49C102.17 107.77 102.27 98.95 102.52 90.15C94.4398 90 86.7998 90.1 78.7098 90ZM73.9998 117.21C70.2898 118.15 66.2198 118.81 62.4598 119.82C68.7698 120.82 75.6697 120.71 81.8497 121.37C88.6097 121.62 95.5198 122.27 102.33 122.5C102.33 121.02 102.19 119.5 102.33 118.04C101.224 118.289 100.072 118.227 98.9998 117.86C96.2898 117.62 93.3297 117.73 90.7297 117.48C85.2297 117.63 79.5298 117 73.9998 117.21ZM60.7897 149.3C62.4497 149.09 63.8797 148.3 65.4797 147.94C65.7797 148.04 66.0498 148.17 66.2698 147.84C66.6798 147.62 67.3398 147.59 67.6498 147.31C69.2171 146.8 70.8132 146.382 72.4297 146.06C72.8897 146.06 72.8297 145.41 73.3497 145.43C72.9997 142.43 73.0697 139.43 72.9797 136.43C73.4197 136.03 73.0598 135.69 73.0698 135.19C73.0039 134.462 72.9805 133.731 72.9998 133C72.9098 131.66 73.1298 130.19 72.9998 128.94C72.4598 128.55 72.7897 127.74 73.0497 127.26C72.9397 126.58 72.6397 126.02 73.0497 125.34C72.6797 124.34 73.4598 123.69 73.1498 122.56C67.6898 121.93 62.1498 121.56 56.6898 121.01C56.8098 130.85 56.8497 141.01 56.7897 150.87C57.9997 150.06 59.5497 150.08 60.7897 149.3ZM74.9797 145.3C74.9629 145.456 74.9294 145.611 74.8798 145.76C75.165 145.649 75.4721 145.604 75.7772 145.63C76.0824 145.656 76.3775 145.752 76.6398 145.91C77.5498 145.54 78.1497 146.55 79.0497 146.25C78.8297 138.55 79.0497 130.73 79.2197 122.93C77.7497 122.585 76.2369 122.457 74.7297 122.55C74.7241 122.634 74.7405 122.718 74.7773 122.793C74.8142 122.869 74.8702 122.933 74.9398 122.98C75.1798 123.35 74.5798 123.67 74.6398 124.11C74.4998 125.49 74.7298 127.11 74.5698 128.38C74.9298 133.9 74.7698 139.66 74.9998 145.3H74.9797ZM93.9998 56C89.5826 55.9455 85.1659 56.1358 80.7698 56.57C81.3098 57.23 80.6798 57.71 80.6498 58.47C80.5198 60.39 80.7398 62.52 80.5898 64.35C80.8498 72.24 80.9898 80.35 80.8998 88.35C81.1598 88.35 81.7197 88.24 81.7897 88.41C85.9797 88.23 90.3198 88.49 94.5698 88.41L94.4697 88.32C94.4697 88.32 94.5698 88.26 94.5798 88.21C93.5798 86.69 94.2598 84.28 93.9998 82.46C93.5798 80.75 94.2497 78.99 93.9097 77.27C93.4197 75.87 94.2397 74.64 93.9097 73.27C93.6497 69.88 94.0698 66.6 93.6398 63.34C93.9049 62.4698 93.9049 61.5403 93.6398 60.67C94.0098 59.83 93.6397 59.05 93.7997 58.18C94.2997 57.46 93.9998 56.78 93.9998 56ZM79.1498 56.53C77.6885 56.3231 76.2037 56.3467 74.7498 56.6C74.6498 67.15 75.0798 77.76 74.8298 88.31C76.3698 88.16 77.9198 88.31 79.4598 88.31C78.7698 82.58 79.1998 76.73 79.0098 71.12C78.8798 69.12 79.1198 67.02 79.0098 65.12C78.4598 64.58 78.7998 63.48 79.0098 62.81C78.7748 61.9423 78.7748 61.0277 79.0098 60.16C78.6798 58.9 79.5197 57.79 79.1697 56.53H79.1498ZM56.8198 104.67C56.7698 109.75 56.7197 114.67 56.6697 119.82H56.8497C62.3797 117.7 68.3798 116.82 74.0598 115.2C73.8749 114.881 73.7177 114.546 73.5898 114.2C73.6477 114.091 73.685 113.972 73.6998 113.85C72.6298 106.28 73.3997 97.91 72.9697 90.1C67.5797 89.77 62.1598 89.76 56.7598 89.51C56.8398 94.44 56.8998 99.61 56.8398 104.67H56.8198ZM129 159.33C136.9 160.63 145.58 160.53 153.27 162.48C153.27 160.29 153.27 158.13 153.27 155.98C153.03 155.9 152.85 155.53 152.56 155.47C152.27 155.41 152.03 155.63 151.77 155.47C151.43 155.14 150.36 155.47 150.11 155.2C148.32 155.34 146.17 154.69 144.24 155.07C142.82 154.25 140.9 154.96 139.48 154.34C135.898 155.811 132.4 157.477 129 159.33V159.33ZM153.08 126.11C153.08 124.11 153.08 122.11 153.08 120.03C152.16 120.46 151.83 120.03 150.87 119.84C148.81 119.62 146.51 119.75 144.54 119.51C135.89 119.27 126.88 119.45 118.24 118.51C114.38 119.68 110.34 121.34 106.68 122.8C122.06 124 137.82 124.26 153.1 126.11H153.08ZM153.08 89.11C153.08 81.77 153.08 60.3 153.08 53.3C152.945 53.3845 152.801 53.4517 152.65 53.5C152.553 53.4401 152.443 53.4057 152.33 53.4C149.33 54.33 145.33 54.01 142.07 54.18C142.061 54.3808 142.129 54.5775 142.26 54.73C142.5 55.3 141.89 55.73 141.94 56.39C141.78 58.44 141.94 60.71 141.78 62.67C141.78 71.24 142.21 80.17 141.54 88.74C145.23 88.68 149.72 88.36 153.13 89.09L153.08 89.11ZM105.79 19.25C109.63 21.19 113.57 22.94 117.51 24.58C117.788 24.5885 118.059 24.4921 118.27 24.31C118.84 24.03 119.33 24.6 120.01 24.48C122.14 24.48 124.46 24.05 126.5 24.05C135.26 23.17 144.27 22.16 153.12 21.75V14.92C137.37 16.35 121.57 17.65 105.84 19.23L105.79 19.25ZM59.4697 22.9C62.3397 23.26 64.7798 25.16 67.6898 25.9C69.8511 26.4888 71.9667 27.2341 74.0198 28.13C74.2198 27.8 74.7198 27.93 75.0198 27.61C75.4298 27.33 75.8298 27.91 76.3398 27.81C77.9398 27.81 79.7298 27.45 81.2498 27.49C87.8298 26.78 94.6998 25.94 101.38 25.69C101.38 24.16 101.38 21.15 101.38 19.63C89.1298 20.72 69.6998 22.55 59.5198 22.88L59.4697 22.9ZM96.7598 190.28L100.61 190.95C100.61 187.44 100.54 183.78 100.68 180.26C97.6797 180.42 94.8498 179.62 91.9498 179.38C91.0991 179.518 90.2281 179.321 89.5198 178.83C88.5154 178.917 87.5037 178.85 86.5198 178.63C84.8798 178.52 83.1598 178.02 81.5898 177.87C81.0798 178.35 80.2198 177.87 79.7098 177.55C79.0498 177.45 78.3698 177.86 77.7598 177.34C77.2998 177.17 76.7598 177.44 76.3198 177.15C75.6898 176.54 74.9398 176.91 74.1898 176.64C69.1898 179.22 64.0897 181.04 59.0997 183.64C71.5697 185.64 84.2798 188.06 96.8098 190.26L96.7598 190.28ZM153.21 194.06V187.95C147.02 187.89 140.88 186.34 134.87 185.78C132.15 185.48 129.38 184.86 126.71 184.52C126.01 184.97 124.83 184.46 124.11 184.1C122.537 184.062 120.972 183.864 119.44 183.51C118.44 182.81 117.33 183.24 116.28 182.8C112.34 185.97 107.67 188.34 103.82 191.51C120.27 194.41 136.7 197.24 153.16 200.14C153.25 198.6 153.25 195.6 153.26 194L153.21 194.06ZM166 177.62C166.3 170.62 165.85 161.68 166.09 154.91C165.69 110.23 165.98 65.31 165.66 20.61C161.941 18.9115 158.331 16.9845 154.85 14.84C155.14 76.03 154.73 138.84 155.04 199.84C158.44 196.979 162.095 194.435 165.96 192.24C166.3 187.38 166 182.5 166 177.62Z" fill="#1D1D1D"/>
</svg>
