<svg width="20" height="20" viewBox="0 0 20 20" fill="none" xmlns="http://www.w3.org/2000/svg">
<g clip-path="url(#clip0_3308_3783)">
<path d="M6.25 18.125C6.94036 18.125 7.5 17.5654 7.5 16.875C7.5 16.1846 6.94036 15.625 6.25 15.625C5.55964 15.625 5 16.1846 5 16.875C5 17.5654 5.55964 18.125 6.25 18.125Z" fill="#1D1D1D"/>
<path d="M14.375 18.125C15.0654 18.125 15.625 17.5654 15.625 16.875C15.625 16.1846 15.0654 15.625 14.375 15.625C13.6846 15.625 13.125 16.1846 13.125 16.875C13.125 17.5654 13.6846 18.125 14.375 18.125Z" fill="#1D1D1D"/>
<path d="M3.30357 5.625H17.3214L15.259 12.8434C15.1844 13.1046 15.0267 13.3344 14.8099 13.4979C14.593 13.6615 14.3288 13.75 14.0571 13.75H6.56788C6.29624 13.75 6.03199 13.6615 5.81513 13.4979C5.59827 13.3344 5.4406 13.1046 5.36597 12.8434L2.54023 2.9533C2.50292 2.82271 2.42408 2.70782 2.31565 2.62603C2.20722 2.54424 2.07509 2.5 1.93928 2.5H0.625" stroke="#1D1D1D" stroke-width="1.5" stroke-linecap="round" stroke-linejoin="round"/>
</g>
<defs>
<clipPath id="clip0_3308_3783">
<rect width="20" height="20" fill="white"/>
</clipPath>
</defs>
</svg>
