<svg width="24" height="24" viewBox="0 0 24 24" fill="none" xmlns="http://www.w3.org/2000/svg">
<path d="M23 12C23 5.92487 18.0751 1 12 1C5.92486 1 1 5.92487 1 12C1 17.4904 5.02254 22.0412 10.2813 22.8664V15.1797H7.48829V12H10.2813V9.57657C10.2813 6.81969 11.9235 5.29688 14.4361 5.29688C15.6396 5.29688 16.8984 5.51172 16.8984 5.51172V8.21875H15.5114C14.1449 8.21875 13.7188 9.06668 13.7188 9.93659V12H16.7695L16.2818 15.1797H13.7187V22.8664C18.9775 22.0412 23 17.4904 23 12Z" fill="black"/>
<path d="M16.2818 15.1797L16.7695 12H13.7187V9.93657C13.7187 9.06668 14.1449 8.21875 15.5114 8.21875H16.8984V5.51171C16.8984 5.51171 15.6396 5.29688 14.4361 5.29688C11.9235 5.29688 10.2812 6.81968 10.2812 9.57656V12H7.48828V15.1797H10.2812V22.8664C10.8498 22.9555 11.4245 23.0001 12 23C12.5847 23 13.1587 22.9542 13.7187 22.8664V15.1797H16.2818Z" fill="white"/>
</svg>
