<svg width="224" height="224" viewBox="0 0 224 224" fill="none" xmlns="http://www.w3.org/2000/svg">
<path d="M211.59 122.82C211.24 119.82 212.28 115.98 209.52 113.9C206.19 111.9 202.52 114.38 201.22 117.42C201.6 111.59 200.9 104.69 201.54 98.57C201.18 92.57 204.59 83.07 195.18 84.57C181.76 84.43 167.77 84.22 154.62 84.82C145.21 87.36 193.1 85.82 196.15 86.32C197.15 86.45 199.15 85.93 199.61 87.26C199.7 90.45 199.53 93.88 199.67 97.01C199.82 108.08 199.24 120.12 199.35 131.26C198.72 133.91 200.45 145.32 198.01 145.41C185.77 145.74 171.94 144.61 159.71 145.55C159.814 144.228 159.514 142.905 158.85 141.757C158.186 140.608 157.189 139.689 155.99 139.12C154.28 137.9 152.07 136.87 150.26 135.63C149.54 135.15 149.35 134.35 148.43 134.42C147.68 133.99 147.03 133.99 146.89 134.82C146.56 135.47 147.97 136.01 148.48 136.22C149.48 136.63 149.93 137.82 151.09 137.98C151.83 138.676 152.719 139.193 153.69 139.49C154.21 140.07 155.06 140.99 155.84 140.88C158.2 142.11 158.94 146.88 156.47 148.3C155.57 148.87 154.22 148.15 153.04 148.61C151.1 148.9 149.3 147.94 147.39 147.84C145.28 147.54 143.27 145.92 141.29 145.84C141.29 145.84 141.29 145.72 141.29 145.68C136.73 147.56 159.51 154.88 159.71 146.45C172.46 147.45 186.13 146.94 199.01 147.11C199.18 150.22 198.89 153.27 199.01 156.36C147.01 156.79 94.7103 157.71 42.7203 158.51C36.8203 158.42 29.6303 158.78 23.3303 158.37C23.2703 154.84 23.9103 151.19 23.5903 147.79C41.5903 150.79 59.7903 149.88 77.9503 149.38C83.1703 149.11 89.3603 149.27 93.9503 147.58C82.8003 146.58 69.1203 148.47 57.5803 148.16C46.3417 148.125 35.1139 147.457 23.9503 146.16C23.2803 146.08 23.2903 145.85 23.2503 145.06C22.8503 127.75 22.6703 110.06 22.7403 92.73C23.2703 91.46 21.8303 88.09 24.0103 87.6C36.2603 86.84 49.4903 87.83 61.4503 86.48C59.1237 90.837 57.6091 95.5809 56.9803 100.48C56.2803 104.48 55.6303 110.03 59.1703 113.15C63.2403 116.45 69.1103 119.31 74.2803 118.02C74.2803 118.43 74.2103 118.77 74.1503 119.2C71.0603 130.84 76.7403 146.34 91.0403 145.67C96.4403 146.21 102.63 146.02 105.53 141.13C105.94 140.51 107.2 137.13 105.6 138.42C101.32 146.65 89.0203 144.95 81.8703 141.6C76.0003 137.27 74.2103 129.41 75.5103 122.6C75.8203 93.27 105.18 110.6 120.43 117.66C127.71 121.02 134.53 125.49 141.83 128.66C142.89 129.51 146.38 129.86 145.63 131.55C143.46 136.55 140.43 145.55 133.88 144.86C119.26 145.64 108.42 132.99 94.7103 130.86C98.4903 133.73 113.48 140.06 120.31 144.15C118.7 146.05 116.17 147.56 114.47 149.15C113.2 148.41 112.1 146.77 111.03 145.84C110.761 145.333 110.382 144.892 109.92 144.55C109.79 143.83 109.13 143.55 108.92 142.93C108.66 142.65 109 142.09 108.63 141.93C108.26 141.77 108.1 141.54 107.71 141.52C106.88 141.86 106.47 142.52 107.37 143.14C107.71 143.28 107.55 143.65 107.63 143.94C107.63 144.39 108.17 144.48 108.3 144.83C108.3 145.66 109.39 145.56 109.3 146.34C109.45 146.74 109.63 147.23 110.14 147.15C110.45 147.15 110.48 147.66 110.72 147.85C111.85 149.11 113.89 152.35 115.59 150.2C115.994 150.162 116.382 150.024 116.719 149.799C117.056 149.574 117.331 149.268 117.52 148.91C119.214 147.76 120.73 146.369 122.02 144.78C131.48 146.9 138.62 149.78 143.84 139.5C145.07 136.65 150.22 130.33 145.66 128.5C161.32 105.79 142.22 101.86 122.96 106.92C118.25 107.49 112.78 107.64 108.14 108.64C110.93 78.49 100.83 80.24 130.54 80.54C136.54 80.54 143.54 80.04 149.47 80.82C152.87 89.17 148.58 99.74 149.83 108.43C149.807 108.547 149.763 108.659 149.7 108.76C150.87 113.13 151.54 103.24 151.7 101.67C151.17 90.98 158.28 75.31 140.82 78.67C134.82 79.03 128.22 78.6 122.2 78.85C117.63 79.44 109.6 77.03 107.68 82.79C106.54 87.56 107.22 93.2 107.05 98.26C97.8203 97.07 87.9803 100.67 78.6603 98.83C78.0203 98.61 77.0003 98.44 76.2403 98.22C77.1403 96.87 78.7603 96.13 79.6403 94.86C80.6403 93.39 82.4403 92.15 83.4203 90.78C83.8174 90.5458 84.1345 90.1973 84.3303 89.78C84.9403 89.66 85.0303 89.05 85.5103 88.78C85.9903 88.51 86.3703 88.87 86.2503 88.21C86.7503 87.83 85.7703 86.74 85.3603 86.89C84.9503 87.04 85.0203 87.58 84.6203 87.61C84.2203 87.64 83.9903 88.03 83.7003 88.26C83.1003 88.26 83.2303 88.82 82.9203 89.11C82.5303 89.11 81.9203 89.29 82.0903 89.86C82.0903 90 82.0903 90.02 81.9703 90.07C81.2881 90.5457 80.6609 91.0957 80.1003 91.71C79.9603 92.01 79.6303 91.93 79.5203 92.27C79.4103 92.61 79.2503 92.63 79.1003 92.81C78.9503 92.99 78.9603 93.44 78.4403 93.32C77.6403 93.71 77.5403 94.76 76.6903 95.14C76.1003 95.35 75.9603 96.06 75.4803 96.42C75.3203 96.96 74.6803 97.03 74.4803 97.53C73.8003 97.18 72.9703 97.23 72.3803 96.69C71.6203 96.26 71.4403 95.48 70.5403 95.55C69.8403 95.09 69.1803 95.06 68.9803 95.87C68.6003 96.52 70.0803 97.16 70.6103 97.36C71.6103 97.78 72.2903 98.93 73.5303 98.92C74.2176 99.4633 75.0746 99.7466 75.9503 99.72C76.9503 99.83 78.2403 101.06 79.2503 100.45C82.8626 101.085 86.5486 101.186 90.1903 100.75C91.4003 100.49 92.8103 101.13 94.0903 100.51C96.0903 99.99 98.0903 100.51 100.09 99.89C102.2 99.44 104.86 99.99 106.69 99.05C106.69 99.05 106.79 99.13 106.82 99.16C106.904 99.0934 106.978 99.0161 107.04 98.93C106.76 102.25 106.37 105.86 107.12 108.93C106.94 109.01 106.79 109.1 106.63 109.19C95.2303 103.74 77.1803 99.37 74.5003 116.6C68.1903 117.1 59.6403 114.27 58.1003 107.44C58.2303 96.2 62.1003 85.44 70.1003 77.44C82.1503 64.62 107.18 62.68 117.95 77.78C122.63 81.39 114.27 66.78 101.18 65.92C107.77 64.75 107.86 66.66 107.77 59.08C108.44 48.49 106.31 36.53 93.1203 36.97C94.1203 36.75 94.1803 35.61 94.7703 34.97C95.0103 34.23 94.4303 33.65 94.7703 32.97C94.3703 29.78 87.9503 30.4 85.9903 31.68C84.4903 31.3 81.6103 34.68 81.7803 36.14C81.1503 37.84 83.8503 40.62 84.9903 38.72C84.9903 38.72 85.1003 38.72 85.1203 38.72C85.2103 37.72 84.1203 37.65 83.5603 37.27C82.7703 33.35 90.3903 31.22 92.9203 32.85C93.0651 33.3139 93.1722 33.7888 93.2403 34.27C92.8903 34.74 92.7903 35.27 92.4203 35.71C92.0503 36.15 91.4803 35.89 91.3303 36.27C91.1803 36.65 90.9303 36.89 90.9203 37.27C86.3603 38.32 81.3603 41.07 79.7603 45.68C77.7603 51.26 79.0603 58.22 79.2703 64.06C79.4503 65.26 79.4503 67.06 80.5403 66.24C81.6603 64.97 80.2403 61.92 80.5403 60.24C80.7403 55.08 79.5403 49.58 81.8703 44.81C85.7703 38.96 94.4803 37.08 100.68 40.47C105.32 44.14 106.09 49.88 105.85 55.47C105.85 57.94 106.47 61.52 105.76 63.61C104.39 63.4 100.99 63.95 100.1 65.13C100.005 65.1499 99.9059 65.1499 99.8103 65.13C99.6642 65.2891 99.5459 65.4717 99.4603 65.67C84.0503 63.4 68.4603 72.21 61.6203 86.05L61.3103 85.64C50.7803 84.89 38.3103 85.51 27.5503 85.86C18.9203 84.86 20.9703 90.92 21.1403 96.46C21.2503 103.21 20.8103 110.46 21.0303 117.25C19.2603 114.46 14.5203 115.05 13.3203 118.19C12.3203 124.19 13.3903 129.77 12.7003 135.86C12.4503 142.33 12.9403 148.31 12.6203 154.65C11.9103 159.79 18.1403 159.76 21.6203 159.92C21.9803 161.29 21.6203 162.61 21.4803 163.99C21.6863 166.675 21.7431 169.369 21.6503 172.06C21.8603 176.67 20.9203 181.37 21.9403 185.89C22.5103 186.79 23.5503 186.46 24.4003 186.55C27.1303 187.28 32.1803 187.63 31.6003 183.43C31.2703 176.73 32.5003 169.74 32.6703 163.26C32.6703 163.19 32.7803 163.1 32.8203 163.05C30.2903 157.74 29.8203 183.18 29.6803 184.7C28.0503 184.94 25.6803 184.9 23.8803 185.03C23.2503 185.03 23.2303 184.98 23.2403 184.54C23.4003 178.14 23.4103 171.44 23.2403 165.09C23.3454 163.385 23.3454 161.675 23.2403 159.97C81.9503 160.36 140.13 158.34 198.89 158.15C199.56 166.99 199.66 175.5 199.98 184.43C200.14 185.85 199.14 185.13 198.39 184.95C197.489 184.758 196.572 184.654 195.65 184.64C194.22 176.91 195.07 168.28 193 160.81C193.009 160.722 193.036 160.637 193.08 160.56C190.14 155.62 194.17 184.32 193.73 186.56C197.96 186.74 202.52 188.12 201.67 182.72C201.56 176.62 201.29 170.28 200.88 164.24C200.892 162.196 200.792 160.153 200.58 158.12C204.68 157.97 211.81 158.83 211.24 152.73C211.54 142.72 211.66 133 211.59 122.82ZM109.87 109.82C112.87 109.35 116.18 109.56 119.15 108.82C120.76 108.48 123.27 109.19 124.6 108.24C130.6 107.43 136.6 105.75 142.65 106.89C155.16 111.89 147.73 119.35 144.86 127.89C144.834 127.93 144.795 127.962 144.75 127.98C138.94 124.64 132.89 121.98 126.99 119.06C127.141 118.671 127.389 118.326 127.71 118.06C127.97 118.06 127.94 117.84 127.93 117.64C127.86 117.12 128.48 117.01 128.54 116.51C128.63 116.18 128.9 116.03 128.92 115.73C129.13 115.73 129.05 115.73 129.01 115.57C128.97 115.41 129.07 115.57 129.08 115.57C129.08 115.39 129.34 115.34 129.3 115.18C129.26 115.02 129.54 115.06 129.6 114.89C129.38 114.35 130.3 114.75 130.17 114.51C130.04 114.27 130.11 114.23 129.87 113.99C129.63 113.75 129.03 113.38 128.79 113.4C128.48 113.58 128.92 113.86 128.33 113.73C127.99 113.8 128.44 114.08 127.92 114.05C127.83 114.43 128.27 114.43 127.59 114.47C127.22 114.47 127.81 114.84 127.59 114.92C127.28 115.125 127.036 115.417 126.89 115.76C126.89 115.88 126.62 115.76 126.73 115.95C126.84 116.14 126.6 116.19 126.61 116.36C126.79 116.62 126.51 116.47 126.38 116.46C126.04 116.46 126.22 116.83 126.18 117.03C126.14 117.23 125.75 117.32 125.64 117.56C125.7 117.81 125.49 117.99 125.48 118.25C120.08 115.39 114.41 112.61 108.8 110.06C109.163 110.008 109.52 109.928 109.87 109.82ZM18.3603 158C16.3603 157.76 13.9803 157.39 14.3603 154.82C14.5603 148.82 14.2103 142.82 14.3603 136.72C15.2703 132.27 12.6003 116.8 17.5003 116.99C17.9118 116.96 18.3252 117.012 18.7164 117.143C19.1077 117.274 19.4691 117.481 19.7797 117.753C20.0904 118.024 20.3441 118.355 20.5261 118.725C20.7081 119.095 20.8149 119.498 20.8403 119.91C20.8403 120.47 20.8903 120.48 21.1403 120.25C21.4803 128.96 20.6703 138.08 22.2703 146.89C21.8003 150.62 22.0103 154.52 21.6303 158.27C20.4703 158.18 19.3603 158.11 18.3603 158ZM209.56 151.72C210.49 157.57 204.46 156.04 200.7 156.3C200.25 152.94 201.12 149.36 200.39 146.17C201.48 137.17 200.82 127.39 201.22 118.17C202.77 115.92 207.67 112.57 209.47 116.42C209.93 118.19 209.68 120.91 209.78 122.82C209.87 132.42 210 142 209.56 151.69V151.72ZM110.56 150.15C110.86 151.15 108.19 152.25 107.37 152.63C106.3 152.33 104.97 153.63 104.11 152.76C103.243 152.869 102.361 152.788 101.528 152.524C100.694 152.26 99.9273 151.818 99.2803 151.23C99.2103 151.12 99.1703 151.06 99.0203 151.1C98.1103 151.36 98.2703 150.1 97.9403 149.63C97.731 149.471 97.5927 149.236 97.5553 148.976C97.5178 148.716 97.5843 148.451 97.7403 148.24C97.676 148.096 97.6497 147.937 97.6637 147.78C97.6777 147.622 97.7316 147.471 97.8203 147.34C98.4003 147.04 98.1403 146.47 98.4803 146.03C98.7203 145.74 99.4803 146.17 99.6903 146.3C99.9203 146.6 99.7603 146.84 99.9503 147.11C100.14 147.38 99.2203 147.53 99.3003 148.01C99.4703 148.32 99.3003 148.56 99.2403 148.87C99.412 149.059 99.5506 149.275 99.6503 149.51C99.6503 149.59 99.9103 149.62 99.7903 149.71C100.926 150.483 102.228 150.976 103.59 151.15C104.834 151.134 106.072 151 107.29 150.75C108.41 150.51 110.08 148.16 110.68 150.19L110.56 150.15ZM85.0603 50.35C85.0603 49.62 85.1803 48.84 85.2403 48.1C87.8603 48.1 90.2403 48.41 92.7703 47.99C94.1703 48.48 95.4203 47.68 96.8403 48.05C97.8403 47.52 98.9103 48.2 99.8403 47.97C100.77 47.74 102.09 47.48 102.08 48.76C101.89 49.31 101.02 49.24 100.54 49.63C100.06 50.02 99.4503 49.37 98.7703 49.49C96.6203 49.55 94.2403 49.89 92.1803 49.78C90.5703 50.03 88.6503 49.78 87.0003 49.86C86.7803 49.86 86.7703 49.96 86.8103 50.17C86.8103 50.17 86.8103 50.78 86.8103 50.84C86.0903 55.84 88.0903 63.65 94.4903 62.84C95.5703 62.84 96.6703 63.15 95.7403 64.08C95.7403 64.08 95.6503 63.98 95.6003 63.98C91.4803 66.3 86.6003 62.08 85.6003 57.98C85.0216 56.908 84.8818 55.6531 85.2103 54.48C84.9173 53.1229 84.8665 51.7247 85.0603 50.35V50.35Z" fill="#1D1D1D"/>
</svg>
