<svg width="38" height="24" viewBox="0 0 38 24" fill="none" xmlns="http://www.w3.org/2000/svg">
<path d="M35 0H3C1.34315 0 0 1.34315 0 3V21C0 22.6569 1.34315 24 3 24H35C36.6569 24 38 22.6569 38 21V3C38 1.34315 36.6569 0 35 0Z" fill="#1D1D1D"/>
<path fill-rule="evenodd" clip-rule="evenodd" d="M11.8039 21.4531C11.2339 21.4531 10.7419 21.1891 10.4419 20.7811L11.0059 20.2111C11.1739 20.4271 11.4499 20.6611 11.8159 20.6611C12.1579 20.6611 12.3919 20.4571 12.3919 20.1331C12.3919 19.7851 12.1159 19.7011 11.6779 19.5751C10.8739 19.3411 10.5499 18.9211 10.5499 18.3811C10.5499 17.7031 11.0659 17.1151 11.8819 17.1151C12.3979 17.1151 12.8719 17.3551 13.0819 17.8231L12.4039 18.2491C12.2779 18.0391 12.0979 17.9011 11.8579 17.9011C11.5759 17.9011 11.3959 18.0931 11.3959 18.3391C11.3959 18.6331 11.6539 18.7231 12.0679 18.8431C12.7159 19.0351 13.2439 19.3591 13.2439 20.1031C13.2439 20.9071 12.6199 21.4531 11.8039 21.4531ZM15.1019 21.4531C14.2379 21.4531 13.5359 20.7631 13.5359 19.9231C13.5359 19.0831 14.2379 18.3931 15.1019 18.3931C15.9659 18.3931 16.6679 19.0831 16.6679 19.9231C16.6679 20.7631 15.9659 21.4531 15.1019 21.4531ZM15.1019 20.6851C15.5219 20.6851 15.8519 20.3551 15.8519 19.9231C15.8542 19.8234 15.8364 19.7243 15.7997 19.6316C15.763 19.5389 15.708 19.4545 15.638 19.3835C15.5681 19.3124 15.4846 19.2561 15.3925 19.2179C15.3004 19.1797 15.2016 19.1604 15.1019 19.1611C14.6819 19.1611 14.3519 19.4911 14.3519 19.9231C14.3519 20.3551 14.6819 20.6851 15.1019 20.6851ZM18.6879 17.9431C18.2319 17.9251 17.9019 18.1531 17.9019 18.6571V18.9691C18.0819 18.7771 18.3399 18.6811 18.6639 18.6811V19.4611C18.2139 19.4731 17.9019 19.7611 17.9019 20.1631V21.3751H17.0859V18.6151C17.0859 17.8351 17.5719 17.1751 18.5679 17.1751H18.6879V17.9431ZM20.4679 21.4531C19.6039 21.4531 18.9019 20.7631 18.9019 19.9231C18.9019 19.0831 19.6039 18.3931 20.4679 18.3931C21.3319 18.3931 22.0339 19.0831 22.0339 19.9231C22.0339 20.7631 21.3319 21.4531 20.4679 21.4531ZM20.4679 20.6851C20.8879 20.6851 21.2179 20.3551 21.2179 19.9231C21.2202 19.8234 21.2024 19.7243 21.1657 19.6316C21.129 19.5389 21.074 19.4545 21.004 19.3835C20.9341 19.3124 20.8506 19.2561 20.7585 19.2179C20.6664 19.1797 20.5676 19.1604 20.4679 19.1611C20.0479 19.1611 19.7179 19.4911 19.7179 19.9231C19.7179 20.3551 20.0479 20.6851 20.4679 20.6851ZM23.2679 18.8011C23.4299 18.5371 23.6939 18.4111 24.0659 18.4231V19.2991C23.5739 19.2991 23.2919 19.5691 23.2919 20.0491V21.3751H22.4759V18.4711H23.2679V18.8011ZM25.3479 19.8931C25.3479 20.3971 25.6779 20.6251 26.1339 20.6071V21.3751H26.0139C25.0179 21.3751 24.5319 20.7151 24.5319 19.9351V17.5351H25.3479V17.9911C25.3479 18.3871 25.6659 18.6811 26.1099 18.6931V19.4731C25.7859 19.4731 25.5279 19.3771 25.3479 19.1851V19.8931ZM27.1099 21.4231C26.9652 21.4225 26.8267 21.3649 26.7244 21.2626C26.6221 21.1603 26.5644 21.0217 26.5639 20.8771C26.5639 20.5771 26.8099 20.3311 27.1099 20.3311C27.4099 20.3311 27.6559 20.5771 27.6559 20.8771C27.6559 21.1771 27.4099 21.4231 27.1099 21.4231ZM19.3379 14.7131C21.8879 14.7091 22.9659 13.2541 23.1619 10.9241C23.2179 10.2541 23.1059 9.84507 22.9039 9.62908C22.8609 9.58134 22.8089 9.54259 22.7509 9.51508C22.7318 9.50637 22.7116 9.50031 22.6909 9.49708L19.6679 8.79108C19.4783 8.73979 19.2795 8.73295 19.0869 8.77108C18.9763 8.78971 18.8737 8.84054 18.7919 8.9172C18.7101 8.99386 18.6527 9.09296 18.6269 9.20208C18.5259 9.54208 18.5329 9.80208 18.7479 10.0091C18.8039 10.0291 18.8489 10.0661 18.8799 10.1131C19.0299 10.2131 19.2419 10.2991 19.5279 10.3771L21.5209 10.8221C21.8509 10.8961 21.7509 11.3921 21.4169 11.3291C21.1278 11.2849 20.8322 11.3134 20.5569 11.4121C20.0699 11.5951 19.7679 12.0131 19.7309 12.7891C19.7292 12.8231 19.7208 12.8564 19.7062 12.8872C19.6916 12.918 19.6711 12.9456 19.6458 12.9684C19.6206 12.9913 19.5911 13.0089 19.559 13.0203C19.5269 13.0318 19.4929 13.0368 19.4589 13.0351C19.4249 13.0334 19.3915 13.025 19.3608 13.0104C19.33 12.9958 19.3024 12.9753 19.2796 12.95C19.2334 12.899 19.2094 12.8318 19.2129 12.7631C19.2549 11.9081 19.5889 11.3421 20.1279 11.0411L19.4039 10.8801C19.1843 10.823 18.9714 10.7425 18.7689 10.6401C18.6859 10.7681 18.5769 10.8801 18.4479 10.9701L18.3909 11.0071C18.3559 11.0311 18.3199 11.0521 18.2839 11.0721C18.5139 11.5061 18.4509 12.0551 18.0929 12.4271L18.0429 12.4811C17.8266 12.702 17.5316 12.8284 17.2224 12.8325C16.9133 12.8366 16.615 12.7182 16.3929 12.5031L16.0049 12.1191C16.3229 13.6721 17.7069 14.7121 19.3249 14.7121H19.3379V14.7131ZM19.2479 15.2291C17.1979 15.1921 15.4749 13.6821 15.4199 11.5391L14.9489 11.0731C14.3669 10.4891 14.2729 9.68008 14.7409 9.20008L14.7909 9.14708C14.9909 8.94008 15.2549 8.82708 15.5239 8.81308C15.1989 8.17208 15.2999 7.47008 15.8059 7.12308L15.8779 7.07608C16.4279 6.75708 16.9059 6.88007 17.3149 7.28608L16.8449 3.42108C16.6869 2.74908 17.0989 2.01308 17.7269 1.87908C17.886 1.84528 18.0501 1.84329 18.21 1.87321C18.3698 1.90314 18.5222 1.96438 18.6582 2.05343C18.7943 2.14247 18.9114 2.25755 19.0029 2.39204C19.0943 2.52653 19.1582 2.67778 19.1909 2.83708L19.9919 6.25708L21.0069 2.78108C21.0947 2.4534 21.3085 2.17373 21.6017 2.00307C21.8948 1.83241 22.2436 1.7846 22.5719 1.87008C23.1889 2.05308 23.5609 2.68108 23.4259 3.30608L22.3079 8.87608L22.7879 8.98808C22.9279 9.00808 23.1099 9.09107 23.2819 9.27507C23.5949 9.60908 23.7459 10.1611 23.6779 10.9671C23.4609 13.5571 22.1849 15.2551 19.2649 15.2301L19.2479 15.2291ZM21.8039 8.75908L22.9179 3.20008C22.9562 3.02597 22.9277 2.84382 22.8381 2.68972C22.7484 2.53562 22.6042 2.42083 22.4339 2.36808C22.238 2.31911 22.0306 2.3494 21.8569 2.45237C21.6831 2.55534 21.557 2.72269 21.5059 2.91808L20.2139 7.34508C20.2008 7.3881 20.1769 7.427 20.1443 7.45798C20.1117 7.48897 20.0716 7.51097 20.028 7.52185C19.9844 7.53273 19.9387 7.53212 19.8954 7.52006C19.8521 7.50801 19.8126 7.48493 19.7809 7.45308C19.7464 7.41913 19.7221 7.37616 19.7109 7.32908L18.6849 2.94508C18.6667 2.85207 18.6301 2.76362 18.5773 2.68491C18.5245 2.6062 18.4566 2.5388 18.3774 2.48666C18.2983 2.43452 18.2096 2.39868 18.1164 2.38124C18.0232 2.36379 17.9275 2.3651 17.8349 2.38508C17.5009 2.45508 17.2509 2.90808 17.3519 3.31108L17.3569 3.34208L17.9399 8.13208L18.3099 8.68408C18.4699 8.46408 18.6999 8.32608 18.9739 8.26508C19.2466 8.20823 19.5289 8.21645 19.7979 8.28907L21.8039 8.75708V8.75908ZM18.0779 9.26908L17.5059 8.41708C17.4835 8.39425 17.4655 8.36747 17.4529 8.33808L17.1909 7.94808C16.8569 7.46208 16.5329 7.29408 16.1509 7.51508L16.0959 7.55208C15.7989 7.75608 15.7579 8.25008 16.0679 8.71908L17.1999 10.4041C17.2968 10.5463 17.4462 10.6443 17.6152 10.6768C17.7842 10.7092 17.9592 10.6733 18.1019 10.5771L18.1579 10.5401C18.2356 10.4866 18.3004 10.4166 18.3479 10.3351C18.0659 10.0421 17.9979 9.68008 18.0779 9.26807V9.26908ZM17.7539 11.2061C17.5605 11.2086 17.3695 11.1632 17.1979 11.0739C17.0264 10.9845 16.8797 10.854 16.7709 10.6941L15.9289 9.44108C15.8148 9.35825 15.6748 9.31923 15.5343 9.33117C15.3938 9.3431 15.2624 9.40519 15.1639 9.50607L15.1139 9.55908C14.8619 9.81808 14.9179 10.3091 15.3139 10.7061L16.7539 12.1331C16.8772 12.2521 17.0425 12.3176 17.2139 12.3154C17.3852 12.3131 17.5488 12.2433 17.6689 12.1211L17.7189 12.0691C17.8294 11.9545 17.894 11.8033 17.9005 11.6442C17.9069 11.4852 17.8548 11.3292 17.7539 11.2061Z" fill="white"/>
</svg>
