<svg width="224" height="224" viewBox="0 0 224 224" fill="none" xmlns="http://www.w3.org/2000/svg">
<path d="M210.82 66.29C207.82 61.87 196.65 61.29 191.56 59.29C179.56 56.22 167.69 52.22 155.56 49.35C153.11 48.4417 150.424 48.3888 147.94 49.2C136.01 51.92 124.12 54.74 112.24 57.2C80.24 65.29 46.33 71.2 15.41 80.73C56.74 73 102 60.9 143.66 52C153.94 48.41 164.41 54.66 174.35 56.42C185.46 60.05 198.91 61.26 209.24 66.94C208.62 70.03 199.35 70.45 196.46 71.7C168.71 79.11 140.46 86.22 112.83 93.59C87.6801 99.74 69.8299 108.82 44.1499 95.27C33.9699 90.93 24.5801 87.12 14.8501 83.56C12.5401 81.71 17.1599 80.27 14.1399 80.66C10.1399 83.77 16.67 86 19.23 86.93C17.46 112.93 16.78 138.93 16 165.02C16.4 166.91 18.5299 166.58 19.8899 166.02C23.6599 165.09 24.6599 164.63 24.8899 160.56C25.9699 140.44 27.5501 119.95 28.2601 100.08C35.7201 102.71 42.78 105.64 50.16 108.74C51.5539 109.138 52.8017 109.934 53.75 111.03C58.58 118.91 57.09 129.33 58.99 138.18C60.71 152.43 63.0601 168.54 64.5201 183.27C65.0801 186.01 64.8801 189.17 66.0201 191.73C67.9601 194.64 73.9401 194.63 74.6101 190.73C73.7401 175.24 71.7 159.59 70.22 144.16C68.45 131.16 68.2801 116.67 65.2901 104.06C75.5401 105.94 85.48 102.25 94.94 99.83C115.23 95.3 132.83 89.73 152.45 85.03C150.2 97.47 149.45 110.75 147.55 123.32C147.5 124.59 146.84 126.32 148.1 124.62C148.32 124.62 148.1 125.75 148.18 126.1C148.498 126.344 148.88 126.489 149.28 126.52C150.46 126.83 151.65 125.61 152.78 125.52C153.184 125.557 153.591 125.493 153.964 125.334C154.338 125.175 154.666 124.926 154.92 124.61C155.484 122.941 155.782 121.192 155.8 119.43C156.9 116.79 156.34 114.08 157.27 111.35C158.27 101.93 161.03 92.25 161.11 82.89C171.48 80.15 181.92 77.43 192.33 74.75C197.17 81.42 195.24 90.75 196.33 98.55C197.67 111.55 198.48 123.96 199.66 136.82C200.28 140.19 198.93 146.26 203.52 147C205.06 146.9 207.71 147 208.12 145C206.88 120.77 206.44 95.76 203.39 72C205.87 71.06 211.86 70.32 210.82 66.29ZM27.0901 101.29C24.9001 117.66 25.2499 134.57 23.3999 151.01C23.1799 155.09 23.11 159.01 22.98 163.01C22.11 164.01 19.9799 164.01 18.6299 164.53C20.0699 149.53 20.63 133.84 21.96 118.79C23.24 114.14 19.6002 96.39 27.6202 99.79C27.4402 100.22 27.2701 100.72 27.0901 101.3V101.29ZM65.6101 115.65C67.9801 140.04 70.6099 164.43 72.8799 188.85C73.1199 190.85 72.59 191.77 70.69 191.91C65.28 192.07 67.15 180.22 65.69 176.49C63.19 159.49 61.4301 141.83 59.0901 124.68C58.3001 118.99 58.48 112.22 53.43 108.39C45.69 104.75 37.4301 101.72 29.5601 98.55C21.1001 94.16 20.89 102.99 20.73 109.23C20.04 121.75 19.3701 134.55 18.2801 146.99C18.4301 140.08 18.92 132.87 18.96 126.05C19.17 113.67 20.6701 99.77 20.3301 87.35C35.4101 92.67 49.3301 100.57 65.0501 103.94C65.0188 107.854 65.2058 111.767 65.6101 115.66V115.65ZM151.25 106.91C151.45 105.57 153 97.18 152 102.04C151.89 102.54 151.77 103.04 151.84 102.61C152.09 101.18 151.91 101.61 152.21 100.18C152.43 95.47 153.8 90.04 153.37 85.38C153.39 85.2785 153.438 85.1848 153.51 85.11C153.482 84.9754 153.438 84.8446 153.38 84.72L155.38 84.22C154.83 89.22 153.25 94.09 153.05 99.01C152.942 98.7811 152.881 98.5329 152.87 98.28C152.87 96.67 152.87 101.28 152.73 101.28C152.73 100.73 152.63 101.5 152.59 101.52C152.74 99.33 151.95 106.87 152.36 102.68C152.43 101.85 152.52 101.25 152.17 103.8C151.98 104.8 151.92 105.5 151.57 105.8C151.57 105.67 151.66 105.2 151.64 105.28C151.62 105.36 151.64 105.14 151.56 105.6C151.48 106.06 150.85 109.32 151.25 106.92V106.91ZM159.65 83.83C158.01 94.83 156.12 105.92 154.65 116.9C154.11 118.9 154.09 121.63 153.39 123.68C152.39 124.19 151 123.79 150.24 124.68C151.7 119.45 152.11 115.79 152.88 109.81C153.4 107.71 154.15 101.09 154.63 97.96C155.23 93.35 156.84 88.41 156.7 83.9L159.84 83.11C159.762 83.3493 159.698 83.593 159.65 83.84V83.83ZM202.65 77.73C203.84 95.62 204.57 113.78 205.7 131.65C205.88 135.79 206.91 140.8 206.17 144.8C204.61 145.12 202.45 145.47 202.02 143.4C200.8 133.4 200.29 122.65 199.2 112.66C198.66 105.66 198.07 97.39 197.34 90.15C196.68 84.77 198.04 78.15 193.58 74.29C196.72 73.44 199.64 72.8 202.78 72C202.59 73.9074 202.556 75.8272 202.68 77.74L202.65 77.73Z" fill="#1D1D1D"/>
</svg>
