<svg width="121" height="24" viewBox="0 0 121 24" fill="none" xmlns="http://www.w3.org/2000/svg">
<path d="M21.0033 4.95911e-05H24.4866V23.5956H21.5896V1.41576L12.0709 23.5956H10.8293L1.20709 1.38206V23.5956H0V4.95911e-05H3.72472L12.3813 20.0899L21.0033 4.95911e-05ZM30.3496 23.5956H33.2811V4.95911e-05H30.3496V23.5956ZM55.6639 22.5843H66.1656V23.5956H36.5919V22.4158L52.0771 1.01129H36.9748V4.95911e-05H65.9276V1.17983L50.4424 22.5843H55.6639ZM46.9781 22.5843L47.0936 22.4158L62.5788 1.01129H55.5518L55.4225 1.17983L39.9373 22.5843H46.9781ZM86.7533 14.5956C86.7533 17.2697 86.0865 19.2978 84.7529 20.6798C83.4194 22.0618 81.6605 22.7529 79.4762 22.7529C77.269 22.7529 75.4929 22.045 74.1478 20.6293C72.8028 19.2135 72.1303 17.0787 72.1303 14.2248V4.95911e-05H69.1988V14.1236C69.1988 15.8315 69.4402 17.309 69.923 18.5562C70.3504 19.7192 71.0399 20.7733 71.9406 21.6405C72.8266 22.4626 73.8947 23.0739 75.0618 23.427C76.3798 23.8227 77.7527 24.016 79.1314 24C81.7996 24 83.9379 23.1854 85.5462 21.5562C87.1545 19.927 87.9592 17.6293 87.9604 14.663V4.95911e-05H86.7533V14.5956ZM111.171 19.618L96.8238 4.95911e-05H93.1336V23.5956H94.3407V1.44948L110.55 23.5956H112.378V4.95911e-05H111.171V19.618ZM118.069 4.95911e-05V23.5956H121V4.95911e-05H118.069Z" fill="#1D1D1D"/>
</svg>
